<svg width="24" height="18" viewBox="0 0 24 18" fill="none" xmlns="http://www.w3.org/2000/svg">
<path d="M12.0003 0C11.6965 0 11.3966 0.0562389 11.1116 0.1647L0.593063 4.23399C0.236822 4.37459 0.000577197 4.73613 0.000577197 5.14185C0.000577197 5.54757 0.236822 5.90911 0.593063 6.04971L2.76426 6.88927C2.14928 7.92568 1.80053 9.15089 1.80053 10.4404V11.5692C1.80053 12.71 1.39554 13.887 0.964304 14.815C0.72056 15.3372 0.443067 15.8514 0.120574 16.3254C0.000577197 16.4981 -0.033172 16.7231 0.0343264 16.9279C0.101825 17.1328 0.259321 17.2855 0.454316 17.3377L2.85426 17.9804C3.01175 18.0246 3.1805 17.9925 3.31925 17.9001C3.45799 17.8077 3.55549 17.655 3.58549 17.4823C3.90798 15.763 3.74674 14.2204 3.50674 13.1157C3.38675 12.5453 3.2255 11.9628 3.0005 11.4286V10.4404C3.0005 9.22721 3.383 8.08235 4.04673 7.16645C4.53047 6.54381 5.1567 6.04167 5.89169 5.73236L11.779 3.25383C12.0865 3.12528 12.4353 3.28596 12.5553 3.61536C12.6753 3.94476 12.5253 4.31835 12.2178 4.4469L6.33043 6.92543C5.86544 7.12226 5.4567 7.42354 5.12295 7.79312L11.1078 10.1069C11.3928 10.2154 11.6928 10.2716 11.9965 10.2716C12.3003 10.2716 12.6003 10.2154 12.8853 10.1069L23.4075 6.04971C23.7638 5.91313 24 5.54757 24 5.14185C24 4.73613 23.7638 4.37459 23.4075 4.23399L12.889 0.1647C12.604 0.0562389 12.304 0 12.0003 0ZM4.80046 15.1042C4.80046 16.5222 8.02538 17.9965 12.0003 17.9965C15.9752 17.9965 19.2001 16.5222 19.2001 15.1042L18.6264 9.26336L13.294 11.3281C12.8778 11.4888 12.439 11.5692 12.0003 11.5692C11.5615 11.5692 11.1191 11.4888 10.7066 11.3281L5.3742 9.26336L4.80046 15.1042Z" fill="#333333"/>
</svg>
