<svg width="18" height="21" viewBox="0 0 18 21" fill="none" xmlns="http://www.w3.org/2000/svg">
<path d="M3.33333 0C1.77057 0 0.5 1.17715 0.5 2.625V18.375C0.5 19.8229 1.77057 21 3.33333 21H14.6667C16.2294 21 17.5 19.8229 17.5 18.375V6.5625H11.8333C11.0497 6.5625 10.4167 5.97598 10.4167 5.25V0H3.33333ZM11.8333 0V5.25H17.5L11.8333 0ZM4.04167 2.625H6.875C7.26458 2.625 7.58333 2.92031 7.58333 3.28125C7.58333 3.64219 7.26458 3.9375 6.875 3.9375H4.04167C3.65208 3.9375 3.33333 3.64219 3.33333 3.28125C3.33333 2.92031 3.65208 2.625 4.04167 2.625ZM4.04167 5.25H6.875C7.26458 5.25 7.58333 5.54531 7.58333 5.90625C7.58333 6.26719 7.26458 6.5625 6.875 6.5625H4.04167C3.65208 6.5625 3.33333 6.26719 3.33333 5.90625C3.33333 5.54531 3.65208 5.25 4.04167 5.25ZM4.75 9.1875H13.25C14.0336 9.1875 14.6667 9.77402 14.6667 10.5V13.125C14.6667 13.851 14.0336 14.4375 13.25 14.4375H4.75C3.96641 14.4375 3.33333 13.851 3.33333 13.125V10.5C3.33333 9.77402 3.96641 9.1875 4.75 9.1875ZM4.75 10.5V13.125H13.25V10.5H4.75ZM11.125 17.0625H13.9583C14.3479 17.0625 14.6667 17.3578 14.6667 17.7188C14.6667 18.0797 14.3479 18.375 13.9583 18.375H11.125C10.7354 18.375 10.4167 18.0797 10.4167 17.7188C10.4167 17.3578 10.7354 17.0625 11.125 17.0625Z" fill="#333333"/>
</svg>
