<svg width="18" height="22" viewBox="0 0 18 22" fill="none" xmlns="http://www.w3.org/2000/svg">
<path d="M3 0C1.34531 0 0 1.2332 0 2.75V19.25C0 20.7668 1.34531 22 3 22H15C16.6547 22 18 20.7668 18 19.25V6.875H12C11.1703 6.875 10.5 6.26055 10.5 5.5V0H3ZM12 0V5.5H18L12 0ZM3.75 2.75H6.75C7.1625 2.75 7.5 3.05938 7.5 3.4375C7.5 3.81562 7.1625 4.125 6.75 4.125H3.75C3.3375 4.125 3 3.81562 3 3.4375C3 3.05938 3.3375 2.75 3.75 2.75ZM3.75 5.5H6.75C7.1625 5.5 7.5 5.80937 7.5 6.1875C7.5 6.56562 7.1625 6.875 6.75 6.875H3.75C3.3375 6.875 3 6.56562 3 6.1875C3 5.80937 3.3375 5.5 3.75 5.5ZM4.5 9.625H13.5C14.3297 9.625 15 10.2395 15 11V13.75C15 14.5105 14.3297 15.125 13.5 15.125H4.5C3.67031 15.125 3 14.5105 3 13.75V11C3 10.2395 3.67031 9.625 4.5 9.625ZM4.5 11V13.75H13.5V11H4.5ZM11.25 17.875H14.25C14.6625 17.875 15 18.1844 15 18.5625C15 18.9406 14.6625 19.25 14.25 19.25H11.25C10.8375 19.25 10.5 18.9406 10.5 18.5625C10.5 18.1844 10.8375 17.875 11.25 17.875Z" fill="#333333"/>
</svg>
