<svg width="22" height="17" viewBox="0 0 22 17" fill="none" xmlns="http://www.w3.org/2000/svg">
<path d="M2.44444 0C1.09618 0 0 1.08906 0 2.42857V14.5714C0 15.9109 1.09618 17 2.44444 17H19.5556C20.9038 17 22 15.9109 22 14.5714V2.42857C22 1.08906 20.9038 0 19.5556 0H2.44444ZM5.5 9.71429H7.94444C9.63264 9.71429 11 11.0728 11 12.75C11 13.0839 10.725 13.3571 10.3889 13.3571H3.05556C2.71944 13.3571 2.44444 13.0839 2.44444 12.75C2.44444 11.0728 3.81181 9.71429 5.5 9.71429ZM4.27778 6.07143C4.27778 5.42733 4.53532 4.80961 4.99374 4.35417C5.45216 3.89872 6.07392 3.64286 6.72222 3.64286C7.37053 3.64286 7.99228 3.89872 8.45071 4.35417C8.90913 4.80961 9.16667 5.42733 9.16667 6.07143C9.16667 6.71553 8.90913 7.33324 8.45071 7.78869C7.99228 8.24413 7.37053 8.5 6.72222 8.5C6.07392 8.5 5.45216 8.24413 4.99374 7.78869C4.53532 7.33324 4.27778 6.71553 4.27778 6.07143ZM14.0556 4.85714H18.9444C19.2806 4.85714 19.5556 5.13036 19.5556 5.46429C19.5556 5.79821 19.2806 6.07143 18.9444 6.07143H14.0556C13.7194 6.07143 13.4444 5.79821 13.4444 5.46429C13.4444 5.13036 13.7194 4.85714 14.0556 4.85714ZM14.0556 7.28571H18.9444C19.2806 7.28571 19.5556 7.55893 19.5556 7.89286C19.5556 8.22679 19.2806 8.5 18.9444 8.5H14.0556C13.7194 8.5 13.4444 8.22679 13.4444 7.89286C13.4444 7.55893 13.7194 7.28571 14.0556 7.28571ZM14.0556 9.71429H18.9444C19.2806 9.71429 19.5556 9.9875 19.5556 10.3214C19.5556 10.6554 19.2806 10.9286 18.9444 10.9286H14.0556C13.7194 10.9286 13.4444 10.6554 13.4444 10.3214C13.4444 9.9875 13.7194 9.71429 14.0556 9.71429Z" fill="#333333"/>
</svg>
