<svg width="20" height="22" viewBox="0 0 20 22" fill="none" xmlns="http://www.w3.org/2000/svg">
<path d="M10.9375 0.000968806C15.9414 0.000968806 20 4.46523 20 9.96928C20 10.5407 19.582 11.0005 19.0625 11.0005C18.543 11.0005 18.125 10.5407 18.125 9.96928C18.125 5.60385 14.9062 2.06338 10.9375 2.06338C10.418 2.06338 10 1.60363 10 1.03217C10 0.460714 10.418 0.000968806 10.9375 0.000968806ZM11.25 8.25061C11.5815 8.25061 11.8995 8.39547 12.1339 8.65332C12.3683 8.91117 12.5 9.26089 12.5 9.62555C12.5 9.9902 12.3683 10.3399 12.1339 10.5978C11.8995 10.8556 11.5815 11.0005 11.25 11.0005C10.9185 11.0005 10.6005 10.8556 10.3661 10.5978C10.1317 10.3399 10 9.9902 10 9.62555C10 9.26089 10.1317 8.91117 10.3661 8.65332C10.6005 8.39547 10.9185 8.25061 11.25 8.25061ZM10 5.15699C10 4.58553 10.418 4.12579 10.9375 4.12579C13.8711 4.12579 16.25 6.74247 16.25 9.96928C16.25 10.5407 15.832 11.0005 15.3125 11.0005C14.793 11.0005 14.375 10.5407 14.375 9.96928C14.375 7.88109 12.8359 6.1882 10.9375 6.1882C10.418 6.1882 10 5.72845 10 5.15699ZM4.58984 0.0611224C5.34766 -0.166602 6.14062 0.25877 6.44141 1.05795L8.00391 5.18277C8.26953 5.88313 8.08594 6.69521 7.55078 7.17214L5.625 8.908C6.92578 11.9329 9.15234 14.382 11.9023 15.8128L13.4766 13.6945C13.9141 13.1059 14.6484 12.9039 15.2852 13.1961L19.0352 14.9148C19.7617 15.2456 20.1484 16.1178 19.9414 16.9514L19.0039 20.7325C18.8203 21.4801 18.2031 22 17.5 22C7.83594 22 0 13.3808 0 2.75085C0 1.97744 0.472656 1.29857 1.15234 1.09233L4.58984 0.0611224Z" fill="#333333"/>
</svg>
