<svg width="19" height="22" viewBox="0 0 19 22" fill="none" xmlns="http://www.w3.org/2000/svg">
<path d="M5.42857 0C6.17924 0 6.78571 0.614453 6.78571 1.375V2.75H12.2143V1.375C12.2143 0.614453 12.8208 0 13.5714 0C14.3221 0 14.9286 0.614453 14.9286 1.375V2.75H16.9643C18.0882 2.75 19 3.67383 19 4.8125V6.875H0V4.8125C0 3.67383 0.91183 2.75 2.03571 2.75H4.07143V1.375C4.07143 0.614453 4.6779 0 5.42857 0ZM0 8.25H19V19.9375C19 21.0762 18.0882 22 16.9643 22H2.03571C0.91183 22 0 21.0762 0 19.9375V8.25ZM2.71429 11.6875V13.0625C2.71429 13.4406 3.01964 13.75 3.39286 13.75H4.75C5.12321 13.75 5.42857 13.4406 5.42857 13.0625V11.6875C5.42857 11.3094 5.12321 11 4.75 11H3.39286C3.01964 11 2.71429 11.3094 2.71429 11.6875ZM8.14286 11.6875V13.0625C8.14286 13.4406 8.44821 13.75 8.82143 13.75H10.1786C10.5518 13.75 10.8571 13.4406 10.8571 13.0625V11.6875C10.8571 11.3094 10.5518 11 10.1786 11H8.82143C8.44821 11 8.14286 11.3094 8.14286 11.6875ZM14.25 11C13.8768 11 13.5714 11.3094 13.5714 11.6875V13.0625C13.5714 13.4406 13.8768 13.75 14.25 13.75H15.6071C15.9804 13.75 16.2857 13.4406 16.2857 13.0625V11.6875C16.2857 11.3094 15.9804 11 15.6071 11H14.25ZM2.71429 17.1875V18.5625C2.71429 18.9406 3.01964 19.25 3.39286 19.25H4.75C5.12321 19.25 5.42857 18.9406 5.42857 18.5625V17.1875C5.42857 16.8094 5.12321 16.5 4.75 16.5H3.39286C3.01964 16.5 2.71429 16.8094 2.71429 17.1875ZM8.82143 16.5C8.44821 16.5 8.14286 16.8094 8.14286 17.1875V18.5625C8.14286 18.9406 8.44821 19.25 8.82143 19.25H10.1786C10.5518 19.25 10.8571 18.9406 10.8571 18.5625V17.1875C10.8571 16.8094 10.5518 16.5 10.1786 16.5H8.82143ZM13.5714 17.1875V18.5625C13.5714 18.9406 13.8768 19.25 14.25 19.25H15.6071C15.9804 19.25 16.2857 18.9406 16.2857 18.5625V17.1875C16.2857 16.8094 15.9804 16.5 15.6071 16.5H14.25C13.8768 16.5 13.5714 16.8094 13.5714 17.1875Z" fill="#333333"/>
</svg>
