<svg width="19" height="22" viewBox="0 0 19 22" fill="none" xmlns="http://www.w3.org/2000/svg">
<path d="M0 2.75C0 1.2332 1.54915 0 3.45455 0H15.5455C17.4509 0 19 1.2332 19 2.75V19.25C19 20.7668 17.4509 22 15.5455 22H3.45455C1.54915 22 0 20.7668 0 19.25V2.75ZM6.90909 19.25C6.90909 19.6281 7.29773 19.9375 7.77273 19.9375H11.2273C11.7023 19.9375 12.0909 19.6281 12.0909 19.25C12.0909 18.8719 11.7023 18.5625 11.2273 18.5625H7.77273C7.29773 18.5625 6.90909 18.8719 6.90909 19.25ZM15.5455 2.75H3.45455V16.5H15.5455V2.75Z" fill="white"/>
</svg>
