<svg width="22" height="22" viewBox="0 0 22 22" fill="none" xmlns="http://www.w3.org/2000/svg">
<path d="M6.875 4.125C6.875 3.03098 7.3096 1.98177 8.08318 1.20818C8.85677 0.434597 9.90598 0 11 0C12.094 0 13.1432 0.434597 13.9168 1.20818C14.6904 1.98177 15.125 3.03098 15.125 4.125C15.125 5.21902 14.6904 6.26823 13.9168 7.04182C13.1432 7.8154 12.094 8.25 11 8.25C9.90598 8.25 8.85677 7.8154 8.08318 7.04182C7.3096 6.26823 6.875 5.21902 6.875 4.125ZM10.3125 10.6562V22L8.23281 20.9602C7.33477 20.5133 6.36367 20.2297 5.3625 20.1309L1.2375 19.7184C0.537109 19.6453 0 19.0566 0 18.3477V9.625C0 8.86445 0.614453 8.25 1.375 8.25H2.67695C5.40977 8.25 8.07383 9.09219 10.3125 10.6562ZM11.6875 22V10.6562C13.9262 9.09219 16.5902 8.25 19.323 8.25H20.625C21.3855 8.25 22 8.86445 22 9.625V18.3477C22 19.0523 21.4629 19.6453 20.7625 19.7141L16.6375 20.1266C15.6406 20.2254 14.6652 20.509 13.7672 20.9559L11.6875 22Z" fill="white"/>
</svg>
