<svg width="24" height="22" viewBox="0 0 24 22" fill="none" xmlns="http://www.w3.org/2000/svg">
<path d="M23.5605 12.1098C24.1465 11.496 24.1465 10.4991 23.5605 9.88527L17.5602 3.59955C16.9743 2.98571 16.0227 2.98571 15.4367 3.59955C14.8507 4.21339 14.8507 5.21027 15.4367 5.82411L18.8775 9.42857H9.00044C8.17071 9.42857 7.50037 10.1308 7.50037 11C7.50037 11.8692 8.17071 12.5714 9.00044 12.5714H18.8775L15.4367 16.1759C14.8507 16.7897 14.8507 17.7866 15.4367 18.4004C16.0227 19.0143 16.9743 19.0143 17.5602 18.4004L23.5605 12.1147V12.1098ZM7.50037 3.14286C8.33009 3.14286 9.00044 2.44062 9.00044 1.57143C9.00044 0.702232 8.33009 0 7.50037 0H4.50022C2.01572 0 0 2.11161 0 4.71429V17.2857C0 19.8884 2.01572 22 4.50022 22H7.50037C8.33009 22 9.00044 21.2978 9.00044 20.4286C9.00044 19.5594 8.33009 18.8571 7.50037 18.8571H4.50022C3.67049 18.8571 3.00015 18.1549 3.00015 17.2857V4.71429C3.00015 3.84509 3.67049 3.14286 4.50022 3.14286H7.50037Z" fill="black"/>
</svg>
