<svg width="20" height="18" viewBox="0 0 20 18" fill="none" xmlns="http://www.w3.org/2000/svg">
<path d="M3.75 2.57143C3.75 1.15313 4.87109 0 6.25 0H17.5C18.8789 0 20 1.15313 20 2.57143V15.4286C20 16.8469 18.8789 18 17.5 18H3.125C1.39844 18 0 16.5616 0 14.7857V3.85714C0 3.14598 0.558594 2.57143 1.25 2.57143C1.94141 2.57143 2.5 3.14598 2.5 3.85714V14.7857C2.5 15.1393 2.78125 15.4286 3.125 15.4286C3.46875 15.4286 3.75 15.1393 3.75 14.7857V2.57143ZM6.25 3.53571V6.75C6.25 7.28438 6.66797 7.71429 7.1875 7.71429H11.5625C12.082 7.71429 12.5 7.28438 12.5 6.75V3.53571C12.5 3.00134 12.082 2.57143 11.5625 2.57143H7.1875C6.66797 2.57143 6.25 3.00134 6.25 3.53571ZM14.375 3.21429C14.375 3.56786 14.6562 3.85714 15 3.85714H16.875C17.2188 3.85714 17.5 3.56786 17.5 3.21429C17.5 2.86071 17.2188 2.57143 16.875 2.57143H15C14.6562 2.57143 14.375 2.86071 14.375 3.21429ZM14.375 7.07143C14.375 7.425 14.6562 7.71429 15 7.71429H16.875C17.2188 7.71429 17.5 7.425 17.5 7.07143C17.5 6.71786 17.2188 6.42857 16.875 6.42857H15C14.6562 6.42857 14.375 6.71786 14.375 7.07143ZM6.25 10.9286C6.25 11.2821 6.53125 11.5714 6.875 11.5714H16.875C17.2188 11.5714 17.5 11.2821 17.5 10.9286C17.5 10.575 17.2188 10.2857 16.875 10.2857H6.875C6.53125 10.2857 6.25 10.575 6.25 10.9286ZM6.25 14.7857C6.25 15.1393 6.53125 15.4286 6.875 15.4286H16.875C17.2188 15.4286 17.5 15.1393 17.5 14.7857C17.5 14.4321 17.2188 14.1429 16.875 14.1429H6.875C6.53125 14.1429 6.25 14.4321 6.25 14.7857Z" fill="#333333"/>
</svg>
