<svg width="23" height="20" viewBox="0 0 23 20" fill="none" xmlns="http://www.w3.org/2000/svg">
<path d="M17.25 1.875C17.25 0.839844 16.4773 0 15.525 0H12.075C11.1227 0 10.35 0.839844 10.35 1.875V3.75H8.05V0.9375C8.05 0.417969 7.66547 0 7.1875 0C6.70953 0 6.325 0.417969 6.325 0.9375V3.75H4.025V0.9375C4.025 0.417969 3.64047 0 3.1625 0C2.68453 0 2.3 0.417969 2.3 0.9375V3.75H1.725C0.772656 3.75 0 4.58984 0 5.625V9.375V18.125C0 19.1602 0.772656 20 1.725 20H10.925H12.075H15.525H21.275C22.2273 20 23 19.1602 23 18.125V9.375C23 8.33984 22.2273 7.5 21.275 7.5H17.25V1.875ZM20.7 14.375V15.625C20.7 15.9688 20.4412 16.25 20.125 16.25H18.975C18.6588 16.25 18.4 15.9688 18.4 15.625V14.375C18.4 14.0312 18.6588 13.75 18.975 13.75H20.125C20.4412 13.75 20.7 14.0312 20.7 14.375ZM8.625 16.25H7.475C7.15875 16.25 6.9 15.9688 6.9 15.625V14.375C6.9 14.0312 7.15875 13.75 7.475 13.75H8.625C8.94125 13.75 9.2 14.0312 9.2 14.375V15.625C9.2 15.9688 8.94125 16.25 8.625 16.25ZM4.6 15.625C4.6 15.9688 4.34125 16.25 4.025 16.25H2.875C2.55875 16.25 2.3 15.9688 2.3 15.625V14.375C2.3 14.0312 2.55875 13.75 2.875 13.75H4.025C4.34125 13.75 4.6 14.0312 4.6 14.375V15.625ZM20.125 10C20.4412 10 20.7 10.2812 20.7 10.625V11.875C20.7 12.2188 20.4412 12.5 20.125 12.5H18.975C18.6588 12.5 18.4 12.2188 18.4 11.875V10.625C18.4 10.2812 18.6588 10 18.975 10H20.125ZM9.2 6.875V8.125C9.2 8.46875 8.94125 8.75 8.625 8.75H7.475C7.15875 8.75 6.9 8.46875 6.9 8.125V6.875C6.9 6.53125 7.15875 6.25 7.475 6.25H8.625C8.94125 6.25 9.2 6.53125 9.2 6.875ZM4.025 6.25C4.34125 6.25 4.6 6.53125 4.6 6.875V8.125C4.6 8.46875 4.34125 8.75 4.025 8.75H2.875C2.55875 8.75 2.3 8.46875 2.3 8.125V6.875C2.3 6.53125 2.55875 6.25 2.875 6.25H4.025ZM9.2 11.875C9.2 12.2188 8.94125 12.5 8.625 12.5H7.475C7.15875 12.5 6.9 12.2188 6.9 11.875V10.625C6.9 10.2812 7.15875 10 7.475 10H8.625C8.94125 10 9.2 10.2812 9.2 10.625V11.875ZM4.025 12.5H2.875C2.55875 12.5 2.3 12.2188 2.3 11.875V10.625C2.3 10.2812 2.55875 10 2.875 10H4.025C4.34125 10 4.6 10.2812 4.6 10.625V11.875C4.6 12.2188 4.34125 12.5 4.025 12.5ZM14.95 10.625V11.875C14.95 12.2188 14.6912 12.5 14.375 12.5H13.225C12.9087 12.5 12.65 12.2188 12.65 11.875V10.625C12.65 10.2812 12.9087 10 13.225 10H14.375C14.6912 10 14.95 10.2812 14.95 10.625ZM14.375 2.5C14.6912 2.5 14.95 2.78125 14.95 3.125V4.375C14.95 4.71875 14.6912 5 14.375 5H13.225C12.9087 5 12.65 4.71875 12.65 4.375V3.125C12.65 2.78125 12.9087 2.5 13.225 2.5H14.375ZM14.95 6.875V8.125C14.95 8.46875 14.6912 8.75 14.375 8.75H13.225C12.9087 8.75 12.65 8.46875 12.65 8.125V6.875C12.65 6.53125 12.9087 6.25 13.225 6.25H14.375C14.6912 6.25 14.95 6.53125 14.95 6.875Z" fill="#333333"/>
</svg>
