<svg width="22" height="16" viewBox="0 0 22 16" fill="none" xmlns="http://www.w3.org/2000/svg">
<path d="M9.53333 15.965C9.94583 16.103 10.3889 15.816 10.3889 15.4019V1.69276C10.3889 1.54019 10.3278 1.38763 10.1979 1.29318C9.44931 0.726506 7.73056 0 5.5 0C3.57118 0 1.7684 0.483127 0.691319 0.87544C0.259722 1.03527 0 1.44212 0 1.88165V15.3329C0 15.7652 0.488889 16.0667 0.920486 15.9323C2.12361 15.5509 4.02951 15.1113 5.5 15.1113C6.79479 15.1113 8.51736 15.6199 9.53333 15.965ZM12.4667 15.965C13.4826 15.6199 15.2052 15.1113 16.5 15.1113C17.9705 15.1113 19.8764 15.5509 21.0795 15.9323C21.5111 16.0703 22 15.7652 22 15.3329V1.88165C22 1.44212 21.7403 1.03527 21.3087 0.879073C20.2316 0.483127 18.4288 0 16.5 0C14.2694 0 12.5507 0.726506 11.8021 1.29318C11.676 1.38763 11.6111 1.54019 11.6111 1.69276V15.4019C11.6111 15.816 12.058 16.103 12.4667 15.965Z" fill="#333333"/>
</svg>
