<svg width="20" height="20" viewBox="0 0 20 20" fill="none" xmlns="http://www.w3.org/2000/svg">
<path d="M15.2718 5.71476H13.1038C12.3409 5.71476 11.7246 6.35309 11.7246 7.14318C11.7246 7.93327 12.3409 8.57159 13.1038 8.57159H18.6208C19.3837 8.57159 20 7.93327 20 7.14318V1.42953C20 0.639438 19.3837 0.00111602 18.6208 0.00111602C17.8579 0.00111602 17.2415 0.639438 17.2415 1.42953V3.71499L16.4829 2.92936C12.7116 -0.976454 6.59986 -0.976454 2.82851 2.92936C-0.942837 6.83518 -0.942837 13.1648 2.82851 17.0706C6.59986 20.9765 12.7116 20.9765 16.4829 17.0706C17.0217 16.5127 17.0217 15.6065 16.4829 15.0485C15.9442 14.4906 15.0692 14.4906 14.5305 15.0485C11.8366 17.8384 7.4705 17.8384 4.77668 15.0485C2.08286 12.2587 2.08286 7.73686 4.77668 4.94699C7.4705 2.15713 11.8366 2.15713 14.5305 4.94699L15.2718 5.71476Z" fill="#333333"/>
</svg>
