<svg width="24" height="17" viewBox="0 0 24 17" fill="none" xmlns="http://www.w3.org/2000/svg">
<path d="M2.03263 6.48504C4.62058 3.97299 8.1312 2.42857 12.0019 2.42857C15.8726 2.42857 19.3832 3.97299 21.9711 6.48504C22.4512 6.94799 23.2088 6.93281 23.6664 6.45089C24.124 5.96897 24.109 5.19866 23.6327 4.73571C20.6171 1.80246 16.5177 0 12.0019 0C7.48608 0 3.38661 1.80246 0.367334 4.73192C-0.108999 5.19866 -0.124002 5.96518 0.333578 6.45089C0.791159 6.93661 1.55254 6.95179 2.02888 6.48504H2.03263ZM12.0019 8.5C14.1322 8.5 16.0751 9.30067 17.5604 10.625C18.0592 11.069 18.8168 11.0196 19.2556 10.5188C19.6945 10.0179 19.6457 9.24754 19.1506 8.80357C17.2453 7.10357 14.7399 6.07143 12.0019 6.07143C9.2639 6.07143 6.75846 7.10357 4.85687 8.80357C4.35803 9.24754 4.31303 10.0141 4.75185 10.5188C5.19068 11.0234 5.94831 11.069 6.44715 10.625C7.92866 9.30067 9.8715 8.5 12.0056 8.5H12.0019ZM14.4023 14.5714C14.4023 13.9273 14.1494 13.3096 13.6992 12.8542C13.2491 12.3987 12.6385 12.1429 12.0019 12.1429C11.3652 12.1429 10.7547 12.3987 10.3045 12.8542C9.85436 13.3096 9.60145 13.9273 9.60145 14.5714C9.60145 15.2155 9.85436 15.8332 10.3045 16.2887C10.7547 16.7441 11.3652 17 12.0019 17C12.6385 17 13.2491 16.7441 13.6992 16.2887C14.1494 15.8332 14.4023 15.2155 14.4023 14.5714Z" fill="#333333"/>
</svg>
