<svg width="25" height="28" viewBox="0 0 25 28" fill="none" xmlns="http://www.w3.org/2000/svg">
<path d="M12.5 14C14.3944 14 16.2112 13.2625 17.5508 11.9497C18.8903 10.637 19.6429 8.85652 19.6429 7C19.6429 5.14348 18.8903 3.36301 17.5508 2.05025C16.2112 0.737498 14.3944 0 12.5 0C10.6056 0 8.78878 0.737498 7.44924 2.05025C6.10969 3.36301 5.35714 5.14348 5.35714 7C5.35714 8.85652 6.10969 10.637 7.44924 11.9497C8.78878 13.2625 10.6056 14 12.5 14ZM9.94978 16.625C4.45312 16.625 0 20.9891 0 26.3758C0 27.2727 0.742188 28 1.65737 28H23.3426C24.2578 28 25 27.2727 25 26.3758C25 20.9891 20.5469 16.625 15.0502 16.625H9.94978Z" fill="#333333"/>
</svg>
