<svg width="25" height="28" viewBox="0 0 25 28" fill="none" xmlns="http://www.w3.org/2000/svg">
<path d="M7.14286 0C8.13058 0 8.92857 0.782031 8.92857 1.75V3.5H16.0714V1.75C16.0714 0.782031 16.8694 0 17.8571 0C18.8449 0 19.6429 0.782031 19.6429 1.75V3.5H22.3214C23.8002 3.5 25 4.67578 25 6.125V8.75H0V6.125C0 4.67578 1.19978 3.5 2.67857 3.5H5.35714V1.75C5.35714 0.782031 6.15513 0 7.14286 0ZM0 10.5H25V25.375C25 26.8242 23.8002 28 22.3214 28H2.67857C1.19978 28 0 26.8242 0 25.375V10.5ZM3.57143 14.875V16.625C3.57143 17.1063 3.97321 17.5 4.46429 17.5H6.25C6.74107 17.5 7.14286 17.1063 7.14286 16.625V14.875C7.14286 14.3938 6.74107 14 6.25 14H4.46429C3.97321 14 3.57143 14.3938 3.57143 14.875ZM10.7143 14.875V16.625C10.7143 17.1063 11.1161 17.5 11.6071 17.5H13.3929C13.8839 17.5 14.2857 17.1063 14.2857 16.625V14.875C14.2857 14.3938 13.8839 14 13.3929 14H11.6071C11.1161 14 10.7143 14.3938 10.7143 14.875ZM18.75 14C18.2589 14 17.8571 14.3938 17.8571 14.875V16.625C17.8571 17.1063 18.2589 17.5 18.75 17.5H20.5357C21.0268 17.5 21.4286 17.1063 21.4286 16.625V14.875C21.4286 14.3938 21.0268 14 20.5357 14H18.75ZM3.57143 21.875V23.625C3.57143 24.1063 3.97321 24.5 4.46429 24.5H6.25C6.74107 24.5 7.14286 24.1063 7.14286 23.625V21.875C7.14286 21.3937 6.74107 21 6.25 21H4.46429C3.97321 21 3.57143 21.3937 3.57143 21.875ZM11.6071 21C11.1161 21 10.7143 21.3937 10.7143 21.875V23.625C10.7143 24.1063 11.1161 24.5 11.6071 24.5H13.3929C13.8839 24.5 14.2857 24.1063 14.2857 23.625V21.875C14.2857 21.3937 13.8839 21 13.3929 21H11.6071ZM17.8571 21.875V23.625C17.8571 24.1063 18.2589 24.5 18.75 24.5H20.5357C21.0268 24.5 21.4286 24.1063 21.4286 23.625V21.875C21.4286 21.3937 21.0268 21 20.5357 21H18.75C18.2589 21 17.8571 21.3937 17.8571 21.875Z" fill="#333333"/>
</svg>
