<svg width="28" height="22" viewBox="0 0 28 22" fill="none" xmlns="http://www.w3.org/2000/svg">
<path d="M4.2 5.5C4.2 4.04131 4.79 2.64236 5.8402 1.61091C6.89041 0.579463 8.31479 0 9.8 0C11.2852 0 12.7096 0.579463 13.7598 1.61091C14.81 2.64236 15.4 4.04131 15.4 5.5C15.4 6.95869 14.81 8.35764 13.7598 9.38909C12.7096 10.4205 11.2852 11 9.8 11C8.31479 11 6.89041 10.4205 5.8402 9.38909C4.79 8.35764 4.2 6.95869 4.2 5.5ZM0 20.7238C0 16.4914 3.49125 13.0625 7.80062 13.0625H11.7994C16.1087 13.0625 19.6 16.4914 19.6 20.7238C19.6 21.4285 19.0181 22 18.3006 22H1.29938C0.581875 22 0 21.4285 0 20.7238ZM26.6569 22H20.6237C20.86 21.5961 21 21.1277 21 20.625V20.2812C21 17.673 19.8144 15.3313 17.9463 13.7586C18.0513 13.7543 18.1519 13.75 18.2569 13.75H20.9431C24.8412 13.75 28 16.8523 28 20.6809C28 21.4113 27.3962 22 26.6569 22ZM18.9 11C17.5437 11 16.3188 10.4586 15.4306 9.58633C16.2925 8.44336 16.8 7.02969 16.8 5.5C16.8 4.34844 16.5112 3.26133 15.9994 2.30742C16.8131 1.72305 17.815 1.375 18.9 1.375C21.6081 1.375 23.8 3.52773 23.8 6.1875C23.8 8.84727 21.6081 11 18.9 11Z" fill="#333333"/>
</svg>
