<svg width="28" height="28" viewBox="0 0 28 28" fill="none" xmlns="http://www.w3.org/2000/svg">
<path d="M15.3125 0.00123303C22.318 0.00123303 28 5.68301 28 12.6882C28 13.4155 27.4148 14.0006 26.6875 14.0006C25.9602 14.0006 25.375 13.4155 25.375 12.6882C25.375 7.13217 20.8687 2.62612 15.3125 2.62612C14.5852 2.62612 14 2.04099 14 1.31368C14 0.586364 14.5852 0.00123303 15.3125 0.00123303ZM15.75 10.5008C16.2141 10.5008 16.6592 10.6851 16.9874 11.0133C17.3156 11.3415 17.5 11.7866 17.5 12.2507C17.5 12.7148 17.3156 13.1599 16.9874 13.4881C16.6592 13.8163 16.2141 14.0006 15.75 14.0006C15.2859 14.0006 14.8408 13.8163 14.5126 13.4881C14.1844 13.1599 14 12.7148 14 12.2507C14 11.7866 14.1844 11.3415 14.5126 11.0133C14.8408 10.6851 15.2859 10.5008 15.75 10.5008ZM14 6.56344C14 5.83613 14.5852 5.251 15.3125 5.251C19.4195 5.251 22.75 8.58132 22.75 12.6882C22.75 13.4155 22.1648 14.0006 21.4375 14.0006C20.7102 14.0006 20.125 13.4155 20.125 12.6882C20.125 10.0305 17.9703 7.87589 15.3125 7.87589C14.5852 7.87589 14 7.29076 14 6.56344ZM6.42578 0.0777922C7.48672 -0.212039 8.59687 0.329344 9.01797 1.34649L11.2055 6.59625C11.5773 7.48762 11.3203 8.52117 10.5711 9.12817L7.875 11.3375C9.69609 15.1873 12.8133 18.3043 16.6633 20.1253L18.8672 17.4294C19.4797 16.6802 20.5078 16.4232 21.3992 16.795L26.6492 18.9824C27.6664 19.4035 28.2078 20.5136 27.918 21.5745L26.6055 26.3868C26.3484 27.3383 25.4844 28 24.5 28C10.9703 28 0 17.0302 0 3.50108C0 2.51675 0.661719 1.65272 1.61328 1.39023L6.42578 0.0777922Z" fill="#333333"/>
</svg>
