<svg width="27" height="27" viewBox="0 0 27 27" fill="none" xmlns="http://www.w3.org/2000/svg">
<path d="M8.69551 1.2984C8.28948 0.317581 7.21902 -0.204466 6.19602 0.0750139L1.5556 1.34058C0.638058 1.5937 0 2.42686 0 3.37604C0 16.4219 10.578 27 23.624 27C24.5731 27 25.4063 26.3619 25.6594 25.4444L26.925 20.804C27.2045 19.781 26.6824 18.7105 25.7016 18.3045L20.6393 16.1952C19.7798 15.8366 18.7832 16.0845 18.1978 16.8069L16.0675 19.4066C12.3551 17.6506 9.34939 14.6449 7.59342 10.9325L10.1931 8.80744C10.9155 8.21684 11.1634 7.22548 10.8048 6.36595L8.69551 1.30367V1.2984Z" fill="#333333"/>
</svg>
