<svg width="32" height="23" viewBox="0 0 32 23" fill="none" xmlns="http://www.w3.org/2000/svg">
<path d="M16.0008 0C15.5958 0 15.1958 0.0699999 14.8158 0.205L0.79077 5.27C0.31577 5.445 0.000769614 5.895 0.000769614 6.4C0.000769614 6.905 0.31577 7.355 0.79077 7.53L3.68577 8.575C2.86577 9.865 2.40077 11.39 2.40077 12.995V14.4C2.40077 15.82 1.86077 17.285 1.28577 18.44C0.96077 19.09 0.59077 19.73 0.16077 20.32C0.000769615 20.535 -0.0442304 20.815 0.0457696 21.07C0.13577 21.325 0.34577 21.515 0.60577 21.58L3.80577 22.38C4.01577 22.435 4.24077 22.395 4.42577 22.28C4.61077 22.165 4.74077 21.975 4.78077 21.76C5.21077 19.62 4.99577 17.7 4.67577 16.325C4.51577 15.615 4.30077 14.89 4.00077 14.225V12.995C4.00077 11.485 4.51077 10.06 5.39577 8.92C6.04077 8.145 6.87577 7.52 7.85577 7.135L15.7058 4.05C16.1158 3.89 16.5808 4.09 16.7408 4.5C16.9008 4.91 16.7008 5.375 16.2908 5.535L8.44077 8.62C7.82077 8.865 7.27577 9.24 6.83077 9.7L14.8108 12.58C15.1908 12.715 15.5908 12.785 15.9958 12.785C16.4008 12.785 16.8008 12.715 17.1808 12.58L31.2108 7.53C31.6858 7.36 32.0008 6.905 32.0008 6.4C32.0008 5.895 31.6858 5.445 31.2108 5.27L17.1858 0.205C16.8058 0.0699999 16.4058 0 16.0008 0ZM6.40077 18.8C6.40077 20.565 10.7008 22.4 16.0008 22.4C21.3008 22.4 25.6008 20.565 25.6008 18.8L24.8358 11.53L17.7258 14.1C17.1708 14.3 16.5858 14.4 16.0008 14.4C15.4158 14.4 14.8258 14.3 14.2758 14.1L7.16577 11.53L6.40077 18.8Z" fill="#333333"/>
</svg>
