<svg width="32" height="25" viewBox="0 0 32 25" fill="none" xmlns="http://www.w3.org/2000/svg">
<path d="M13.8667 24.4167C14.4667 24.6278 15.1111 24.1889 15.1111 23.5556V2.58889C15.1111 2.35556 15.0222 2.12222 14.8333 1.97778C13.7444 1.11111 11.2444 0 8 0C5.19444 0 2.57222 0.738889 1.00556 1.33889C0.377778 1.58333 0 2.20556 0 2.87778V23.45C0 24.1111 0.711111 24.5722 1.33889 24.3667C3.08889 23.7833 5.86111 23.1111 8 23.1111C9.88333 23.1111 12.3889 23.8889 13.8667 24.4167ZM18.1333 24.4167C19.6111 23.8889 22.1167 23.1111 24 23.1111C26.1389 23.1111 28.9111 23.7833 30.6611 24.3667C31.2889 24.5778 32 24.1111 32 23.45V2.87778C32 2.20556 31.6222 1.58333 30.9944 1.34444C29.4278 0.738889 26.8056 0 24 0C20.7556 0 18.2556 1.11111 17.1667 1.97778C16.9833 2.12222 16.8889 2.35556 16.8889 2.58889V23.5556C16.8889 24.1889 17.5389 24.6278 18.1333 24.4167Z" fill="#333333"/>
</svg>
