<svg width="31" height="25" viewBox="0 0 31 25" fill="none" xmlns="http://www.w3.org/2000/svg">
<path d="M23.25 2.34375C23.25 1.0498 22.2086 0 20.925 0H16.275C14.9914 0 13.95 1.0498 13.95 2.34375V4.6875H10.85V1.17188C10.85 0.522461 10.3317 0 9.6875 0C9.04328 0 8.525 0.522461 8.525 1.17188V4.6875H5.425V1.17188C5.425 0.522461 4.90672 0 4.2625 0C3.61828 0 3.1 0.522461 3.1 1.17188V4.6875H2.325C1.04141 4.6875 0 5.7373 0 7.03125V11.7188V22.6562C0 23.9502 1.04141 25 2.325 25H14.725H16.275H20.925H28.675C29.9586 25 31 23.9502 31 22.6562V11.7188C31 10.4248 29.9586 9.375 28.675 9.375H23.25V2.34375ZM27.9 17.9688V19.5312C27.9 19.9609 27.5512 20.3125 27.125 20.3125H25.575C25.1487 20.3125 24.8 19.9609 24.8 19.5312V17.9688C24.8 17.5391 25.1487 17.1875 25.575 17.1875H27.125C27.5512 17.1875 27.9 17.5391 27.9 17.9688ZM11.625 20.3125H10.075C9.64875 20.3125 9.3 19.9609 9.3 19.5312V17.9688C9.3 17.5391 9.64875 17.1875 10.075 17.1875H11.625C12.0512 17.1875 12.4 17.5391 12.4 17.9688V19.5312C12.4 19.9609 12.0512 20.3125 11.625 20.3125ZM6.2 19.5312C6.2 19.9609 5.85125 20.3125 5.425 20.3125H3.875C3.44875 20.3125 3.1 19.9609 3.1 19.5312V17.9688C3.1 17.5391 3.44875 17.1875 3.875 17.1875H5.425C5.85125 17.1875 6.2 17.5391 6.2 17.9688V19.5312ZM27.125 12.5C27.5512 12.5 27.9 12.8516 27.9 13.2812V14.8438C27.9 15.2734 27.5512 15.625 27.125 15.625H25.575C25.1487 15.625 24.8 15.2734 24.8 14.8438V13.2812C24.8 12.8516 25.1487 12.5 25.575 12.5H27.125ZM12.4 8.59375V10.1562C12.4 10.5859 12.0512 10.9375 11.625 10.9375H10.075C9.64875 10.9375 9.3 10.5859 9.3 10.1562V8.59375C9.3 8.16406 9.64875 7.8125 10.075 7.8125H11.625C12.0512 7.8125 12.4 8.16406 12.4 8.59375ZM5.425 7.8125C5.85125 7.8125 6.2 8.16406 6.2 8.59375V10.1562C6.2 10.5859 5.85125 10.9375 5.425 10.9375H3.875C3.44875 10.9375 3.1 10.5859 3.1 10.1562V8.59375C3.1 8.16406 3.44875 7.8125 3.875 7.8125H5.425ZM12.4 14.8438C12.4 15.2734 12.0512 15.625 11.625 15.625H10.075C9.64875 15.625 9.3 15.2734 9.3 14.8438V13.2812C9.3 12.8516 9.64875 12.5 10.075 12.5H11.625C12.0512 12.5 12.4 12.8516 12.4 13.2812V14.8438ZM5.425 15.625H3.875C3.44875 15.625 3.1 15.2734 3.1 14.8438V13.2812C3.1 12.8516 3.44875 12.5 3.875 12.5H5.425C5.85125 12.5 6.2 12.8516 6.2 13.2812V14.8438C6.2 15.2734 5.85125 15.625 5.425 15.625ZM20.15 13.2812V14.8438C20.15 15.2734 19.8012 15.625 19.375 15.625H17.825C17.3988 15.625 17.05 15.2734 17.05 14.8438V13.2812C17.05 12.8516 17.3988 12.5 17.825 12.5H19.375C19.8012 12.5 20.15 12.8516 20.15 13.2812ZM19.375 3.125C19.8012 3.125 20.15 3.47656 20.15 3.90625V5.46875C20.15 5.89844 19.8012 6.25 19.375 6.25H17.825C17.3988 6.25 17.05 5.89844 17.05 5.46875V3.90625C17.05 3.47656 17.3988 3.125 17.825 3.125H19.375ZM20.15 8.59375V10.1562C20.15 10.5859 19.8012 10.9375 19.375 10.9375H17.825C17.3988 10.9375 17.05 10.5859 17.05 10.1562V8.59375C17.05 8.16406 17.3988 7.8125 17.825 7.8125H19.375C19.8012 7.8125 20.15 8.16406 20.15 8.59375Z" fill="#333333"/>
</svg>
