<svg width="26" height="23" viewBox="0 0 26 23" fill="none" xmlns="http://www.w3.org/2000/svg">
<path d="M4.875 3.28571C4.875 1.47344 6.33242 0 8.125 0H22.75C24.5426 0 26 1.47344 26 3.28571V19.7143C26 21.5266 24.5426 23 22.75 23H4.0625C1.81797 23 0 21.1621 0 18.8929V4.92857C0 4.01987 0.726172 3.28571 1.625 3.28571C2.52383 3.28571 3.25 4.01987 3.25 4.92857V18.8929C3.25 19.3446 3.61562 19.7143 4.0625 19.7143C4.50938 19.7143 4.875 19.3446 4.875 18.8929V3.28571ZM8.125 4.51786V8.625C8.125 9.30781 8.66836 9.85714 9.34375 9.85714H15.0312C15.7066 9.85714 16.25 9.30781 16.25 8.625V4.51786C16.25 3.83504 15.7066 3.28571 15.0312 3.28571H9.34375C8.66836 3.28571 8.125 3.83504 8.125 4.51786ZM18.6875 4.10714C18.6875 4.55893 19.0531 4.92857 19.5 4.92857H21.9375C22.3844 4.92857 22.75 4.55893 22.75 4.10714C22.75 3.65536 22.3844 3.28571 21.9375 3.28571H19.5C19.0531 3.28571 18.6875 3.65536 18.6875 4.10714ZM18.6875 9.03572C18.6875 9.4875 19.0531 9.85714 19.5 9.85714H21.9375C22.3844 9.85714 22.75 9.4875 22.75 9.03572C22.75 8.58393 22.3844 8.21429 21.9375 8.21429H19.5C19.0531 8.21429 18.6875 8.58393 18.6875 9.03572ZM8.125 13.9643C8.125 14.4161 8.49062 14.7857 8.9375 14.7857H21.9375C22.3844 14.7857 22.75 14.4161 22.75 13.9643C22.75 13.5125 22.3844 13.1429 21.9375 13.1429H8.9375C8.49062 13.1429 8.125 13.5125 8.125 13.9643ZM8.125 18.8929C8.125 19.3446 8.49062 19.7143 8.9375 19.7143H21.9375C22.3844 19.7143 22.75 19.3446 22.75 18.8929C22.75 18.4411 22.3844 18.0714 21.9375 18.0714H8.9375C8.49062 18.0714 8.125 18.4411 8.125 18.8929Z" fill="#333333"/>
</svg>
