<svg width="29" height="29" viewBox="0 0 29 29" fill="none" xmlns="http://www.w3.org/2000/svg">
<path d="M13.7889 0.144448L1.10289 5.58248C0.310019 5.92236 -0.131726 6.77205 0.0438397 7.61041C0.219405 8.44877 0.955647 9.06055 1.81648 9.06055V9.51372C1.81648 10.2671 2.42247 10.8732 3.1757 10.8732H25.8293C26.5825 10.8732 27.1885 10.2671 27.1885 9.51372V9.06055C28.0493 9.06055 28.7912 8.45444 28.9611 7.61041C29.1311 6.76638 28.6893 5.91669 27.9021 5.58248L15.2161 0.144448C14.763 -0.0481492 14.242 -0.0481492 13.7889 0.144448ZM7.25334 12.6859H3.62877V23.8055C3.59479 23.8225 3.56081 23.8452 3.52683 23.8679L0.808398 25.6805C0.145781 26.1224 -0.154379 26.9494 0.0778201 27.7141C0.310019 28.4789 1.01794 29 1.81648 29H27.1885C27.987 29 28.6893 28.4789 28.9215 27.7141C29.1537 26.9494 28.8592 26.1224 28.1909 25.6805L25.4725 23.8679C25.4385 23.8452 25.4045 23.8282 25.3706 23.8055V12.6859H21.7516V23.562H19.4863V12.6859H15.8617V23.562H13.1433V12.6859H9.5187V23.562H7.25334V12.6859ZM14.5025 3.62252C14.9831 3.62252 15.4441 3.8135 15.784 4.15344C16.1238 4.49339 16.3148 4.95445 16.3148 5.4352C16.3148 5.91595 16.1238 6.37701 15.784 6.71695C15.4441 7.0569 14.9831 7.24788 14.5025 7.24788C14.0218 7.24788 13.5609 7.0569 13.221 6.71695C12.8811 6.37701 12.6902 5.91595 12.6902 5.4352C12.6902 4.95445 12.8811 4.49339 13.221 4.15344C13.5609 3.8135 14.0218 3.62252 14.5025 3.62252Z" fill="#333333"/>
</svg>
