<svg width="24" height="29" viewBox="0 0 24 29" fill="none" xmlns="http://www.w3.org/2000/svg">
<path d="M4 0C1.79375 0 0 1.62559 0 3.625V25.375C0 27.3744 1.79375 29 4 29H20C22.2062 29 24 27.3744 24 25.375V9.0625H16C14.8938 9.0625 14 8.25254 14 7.25V0H4ZM16 0V7.25H24L16 0ZM5 3.625H9C9.55 3.625 10 4.03281 10 4.53125C10 5.02969 9.55 5.4375 9 5.4375H5C4.45 5.4375 4 5.02969 4 4.53125C4 4.03281 4.45 3.625 5 3.625ZM5 7.25H9C9.55 7.25 10 7.65781 10 8.15625C10 8.65469 9.55 9.0625 9 9.0625H5C4.45 9.0625 4 8.65469 4 8.15625C4 7.65781 4.45 7.25 5 7.25ZM6 12.6875H18C19.1063 12.6875 20 13.4975 20 14.5V18.125C20 19.1275 19.1063 19.9375 18 19.9375H6C4.89375 19.9375 4 19.1275 4 18.125V14.5C4 13.4975 4.89375 12.6875 6 12.6875ZM6 14.5V18.125H18V14.5H6ZM15 23.5625H19C19.55 23.5625 20 23.9703 20 24.4688C20 24.9672 19.55 25.375 19 25.375H15C14.45 25.375 14 24.9672 14 24.4688C14 23.9703 14.45 23.5625 15 23.5625Z" fill="#333333"/>
</svg>
